<?xml version="1.0" encoding="UTF-8" standalone="no"?><svg width="2400" height="200" viewBox="0 0 2400 200" version="1.1" xmlns="http://www.w3.org/2000/svg" xmlns:svg="http://www.w3.org/2000/svg" stroke-linecap="round" stroke-linejoin="round" stroke-width="5" stroke="#00336C" fill="none"><g stroke="#FFC498"><path d="M 24,85 87,17" /><path d="M 32,64 24,85 45,75" /><path stroke="#00336C" d="m 52,47 8,8" /><path d="M 79,38 87,17 66,28" /></g><path fill="#006769" d="m 120,65 -3,8 -11,25.5 l -8,32 32,-18 c 22,-22 28,-28 41,-41 l -20.5,-1.4 c 13,-14.3 22,-29.5 27,-35.5 -2,-9 -4,-10 -13,-6.3 l -27.5,35 -4,-18 z" /><path d="M 0,147.5 200,147.5" /><path d="m 69,147.5 c 28,69 37,50 63,0" stroke-dasharray="10" /><g  transform="translate(200,0)"><path d="m 66,150 c 28,69 37,50 63,0"  /><path d="m 135,145 c 28,-69 38,-50 63,0" stroke-dasharray="8" /><path d="M 66,147.5 H 0" /><path d="m 130,147.5 70,0" /><circle fill="#009E6B" stroke="#009E6B" r="8" cy="36" cx="100" /><g stroke="#FFC498"><path d="m 100,75 -3,80 -7,-25" /><path d="m 97,155 9,-24.5" /></g></g><g  transform="translate(400,0)"><path d="m 66,150 c 28,69 37,50 63,0"  /><path d="m 135,145 c 28,-69 38,-50 63,0" stroke-dasharray="8" /><path d="M 66,147.5 H 0" /><path d="m 130,147.5 70,0" /><circle fill="#009E6B" stroke="#009E6B" r="8" cy="173" cx="96" /><g stroke="#FFC498"><path d="M 163,89 C 103,-19 95,62 95,134 l -7,-25" /><path d="m 95,134 8,-24.5" /></g></g><g  transform="translate(600,0)"><path d="m 66,150 c 28,69 37,50 63,0"  /><path d="M 66,147.5 H 0" /><path d="m 130,147.5 70,0" /><path d="m 66,148 c 29,-24 39,-18 64,0" stroke-dasharray="8" /><circle fill="#009E6B" stroke="#009E6B" r="8" cy="173" cx="96" /><g stroke="#00336C"><path fill="#006769" d="M 106,64 145,89 151,58 177,26 156.5,12.5 134.5,48.5 Z" /><path d="M 156.5,12.5 167.5,-3" /><path d="M 177,26 200,-5" /></g><g stroke="#FFC498" stroke-dasharray="7"><path d="M 135,94 116,124" /><path d="M 120,86 102,116" /><path d="M 106,79 88,109" /></g></g><g  transform="translate(800,0)"><g stroke="#009E6B"><path d="M 100,140 100,90" /><path d="M 100,116 110,110" /><path d="M 100,130 90,120" /><path d="M 100,99 89,90" /><path d="M 100,99 119,87" /></g><path d="m 66,150 c 25.5,-10.7 36.5,-9 64,0" /><path d="M 66,150 H 3.5" /><path d="m 129,150 72,0" /></g><g  transform="translate(1000,0)"><g stroke="#009E6B"><path d="M 100,140 100,38" /><path d="M 100,116 139,89" /><path d="M 100,129 75,87" /><path d="M 100,83 125,66" /><path d="M 100,49 120,36" /><path d="M 100,64 77,51" /><path d="M 100,83 77,70" /><path d="M 100,50 79,36" /><path d="m 120,100 25,4" /><path d="m 120,100 6,-25" /><path d="M 87,112 60,105" /><ellipse fill="#009E6B" cx="100" cy="28" rx="5" ry="8" /></g><path d="m 66,150 c 25.5,-10.7 36.5,-9 64,0" /><path d="M 66,150 H 3.5" /><path d="m 129,150 69,0" /></g><g  transform="translate(1200,0)"><g stroke="#009E6B"><path d="M 50,139 49,38" /><path d="M 50,116 88,89" /><path d="M 50,128 25,86" /><path d="M 50,82 74,66" /><path d="M 50,49 69,35" /><path d="M 49,62 26,50" /><path d="M 50,82 25,70" /><path d="M 50,49 28,35" /><path d="m 70,102 25,4" /><path d="m 70,102 6,-25" /><path d="M 38,111 9,104" /><ellipse fill="#009E6B" cx="49" cy="28" rx="5" ry="8" /></g><path d="m 15,148 c 25.5,-11 36.5,-9 64,0" /><path d="M 15,148 H 0.5" /><path d="m 78,148 121.6,0" /><g fill="white"><path d="m 118.5,54.5 60.5,-18.8 c 3.2,-1.6 6.2,-3 11.8,-7 10.3,-12.7 2.2,-32.2 -21.3,-19 -5,5.5 -4,12.8 -5.7,19.3 L 81.3,56.8 Z" /><path d="m 118.5,26 60.5,18.8 c 3.2,1.6 6.2,3 11.8,7 10.3,12.7 2.2,32 -21.3,19 -5,-5.5 -4,-12.8 -5.7,-19.3 L 81.3,24 Z" /><path d="m 177,16 h 10 l -4,8.5 -9.6,1.3 z" /><path d="m 177,65 h 10 l -4,-8.5 -9.6,-1.3 z" /></g><g stroke="#FFC498"><path d="m 144,60.5 -7,12 12,3" /><path d="m 144,123.5 -10,9 10,9" /><path stroke="#FFACCF" d="m 109,102.5 11,0" /><path stroke-dasharray="9" d="M 146,68.5 C 95,85 114.2,136.2 144,132.8" /></g></g><g  transform="translate(1400,0)"><g stroke="#009E6B"><path d="M 50,139 49,70" /><path d="M 50,116 88,89" /><path d="M 50,128 25,86" /><path d="M 50,82 74,66" /><path d="M 50,82 25,70" /><path d="m 70,102 25,4" /><path d="m 70,102 6,-25" /><path d="M 38,111 9,104" /></g><path d="m 15,148 c 25.5,-11 36.5,-9 64,0" /><path d="M 15,148 H 0.5" /><path d="m 78,148 121.6,0" /><g stroke="#009E6B" transform="rotate(-90,153,95)"><path d="m 146,120 1,-36" /><path d="m 168,82 -22,12" /><path d="m 125,97 20,11" /><path d="m 125,82 20,12" /><ellipse fill="#009E6B" cx="-147" cy="-74" rx="5" ry="8" transform="scale(-1)" /></g><path d="m 110,113 15,19 h 49 l 17,-19" /><g stroke="#FFC498"><path d="M 55,45.5 C 91,1 116,7.5 143,61 l 1.6,-22" /><path d="M 143,61 124,49" /></g></g><g  transform="translate(1600,0)"><g stroke="#009E6B" transform="rotate(-90,126,124)"><path d="m 146,120 0,-36" /><path d="m 168,82 -22,13" /><path d="m 125,97 20,11" /><path d="m 125,82 22,13" /><ellipse fill="#009E6B" cx="-146" cy="-74" rx="5" ry="8" transform="scale(-1)" /></g><path d="m 54,117 17,18 h 55 l 19,-18" /></g><g  transform="translate(1800,0)"><g stroke="#009E6B" transform="rotate(-90,70,111)"><path d="m 147,120 0,-36" /><path d="m 169,82 -22,14" /><path d="m 125,97 20,12" /><path d="m 126,82 20,13" /><ellipse fill="#009E6B" cx="-147" cy="-74" rx="5" ry="8" transform="scale(-1)" /></g><path d="m 8,48 17,18 h 55 l 19,-18" /><path d="m 86,105 0,73 80,0 v -73" /><path d="m 40,97 -17,0 0,87 h 17" /><g stroke="#FFC498"><path d="M 97,26 C 153,17 150,78 122,146" /><path d="m 123,114 -1,34 21,-28" /></g></g><g  transform="translate(2000,0)"><path d="m 86,105 0,73 80,0 v -73" /><path d="m 40,97 -17,0 0,87 h 17" /><g stroke="#009E6B" transform="rotate(-90,160,128)"><path d="m 147,120 0,-36" /><path d="m 169,82 -22,14" /><path d="m 125,97 20,12" /><path d="m 126,82 20,13" /><ellipse fill="#009E6B" cx="-147" cy="-74" rx="5" ry="8" transform="scale(-1)" /></g><g stroke="#ffc498"><path d="M 130,92 137,68" /><path d="M 130,92 117,70" /><path d="M 129,89 C 135,55 62,-55 30,82" /></g></g><g  transform="translate(2200,0)"><g stroke="#009E6B" transform="rotate(-90,144,137)"><path d="m 147,120 0,-36" /><path d="m 168,82 -21,14" /><path d="m 125,97 20,11" /><path d="m 126,82 20,14" /><ellipse fill="#009E6B" cx="-147" cy="-74" rx="5" ry="8" transform="scale(-1)" /></g><path d="m 62,97 -0,73 80,0 V 97" /><path d="M 150,108 150,90 54,90 v 17" /></g></svg>