<?xml version="1.0" encoding="UTF-8" standalone="no"?><svg width="600" height="600" viewBox="0 0 600 600" version="1.1" xmlns="http://www.w3.org/2000/svg" xmlns:svg="http://www.w3.org/2000/svg" stroke-linecap="round" stroke-linejoin="round" stroke-width="5" stroke="#00336C" fill="none"><g fill="#00336C"><path d="M 528,354 V 538 L 454,557 H 594 L 541,538 538,345" /><ellipse cx="533" cy="253" rx="39" ry="116" /><path d="M 50,50 20,95 380,95 338,50 Z" /><rect width="330" height="38" x="30" y="345" /><rect width="7" height="171" x="58" y="386" /><rect width="7" height="171" x="330" y="386" /></g><g stroke="#006769" transform="translate(-20,0)"><path d="m 91,260 0,-75" /><path d="M 92,237 110,222" /><path d="M 92,237 72,223" /><path d="m 58,188 33,20 36,-20" /><path d="m 79,178 12,7 v 0 L 106,177" /><path stroke="#00336C" fill="#00336C" d="m 70,335 c 12,0 47,0 47,0 0,0 30,-73 26,-73 H 43 Z" /></g><g stroke="#006769" transform="translate(100,0)"><path d="m 91,260 0,-75" /><path d="M 92,237 110,222" /><path d="M 92,237 72,223" /><path d="m 58,188 33,20 36,-20" /><path d="m 79,178 12,7 v 0 L 106,177" /><path stroke="#00336C" fill="#00336C" d="m 70,335 c 12,0 47,0 47,0 0,0 30,-73 26,-73 H 43 Z" /></g><g stroke="#006769" transform="translate(220,0)"><path d="m 91,260 0,-75" /><path d="M 92,237 110,222" /><path d="M 92,237 72,223" /><path d="m 58,188 33,20 36,-20" /><path d="m 79,178 12,7 v 0 L 106,177" /><path stroke="#00336C" fill="#00336C" d="m 70,335 c 12,0 47,0 47,0 0,0 30,-73 26,-73 H 43 Z" /></g><g stroke="#FFC498" stroke-dasharray="10"><path d="m 47,104 -27,42" /><path d="m 47,104 -27,42" transform="translate(40,0)" /><path d="m 47,104 -27,42" transform="translate(80,0)" /><path d="m 47,104 -27,42" transform="translate(120,0)" /><path d="m 200,148 0,-44" /><path d="m 264,148 -27,-42" /><path d="m 264,148 -27,-42" transform="translate(40,0)" /><path d="m 264,148 -27,-42" transform="translate(80,0)" /><path d="m 264,148 -27,-42" transform="translate(120,0)" /></g><g stroke="#FFACCF" stroke-dasharray="10"><path d="m 472,172 c -6,5 -13,8 -20,10 -7,1 -15,0 -22,-2 -5,-2 -10,-5 -14,-7 -5,-3 -10,-5 -15,-5 -6,0 -12,0 -16,4" /><path d="m 472,172 c -6,5 -13,8 -20,10 -7,1 -15,0 -22,-2 -5,-2 -10,-5 -14,-7 -5,-3 -10,-5 -15,-5 -6,0 -12,0 -16,4" transform="translate(0,30)" /><path d="m 472,172 c -6,5 -13,8 -20,10 -7,1 -15,0 -22,-2 -5,-2 -10,-5 -14,-7 -5,-3 -10,-5 -15,-5 -6,0 -12,0 -16,4" transform="translate(0,60)" /><path d="m 472,172 c -6,5 -13,8 -20,10 -7,1 -15,0 -22,-2 -5,-2 -10,-5 -14,-7 -5,-3 -10,-5 -15,-5 -6,0 -12,0 -16,4" transform="translate(0,90)" /><path d="m 472,172 c -6,5 -13,8 -20,10 -7,1 -15,0 -22,-2 -5,-2 -10,-5 -14,-7 -5,-3 -10,-5 -15,-5 -6,0 -12,0 -16,4" transform="translate(0,120)" /><path d="m 472,172 c -6,5 -13,8 -20,10 -7,1 -15,0 -22,-2 -5,-2 -10,-5 -14,-7 -5,-3 -10,-5 -15,-5 -6,0 -12,0 -16,4" transform="translate(0,150)" /></g></svg>