<?xml version="1.0" encoding="UTF-8" standalone="no"?><svg width="600" height="600" viewBox="0 0 600 600" version="1.1" xmlns="http://www.w3.org/2000/svg" xmlns:svg="http://www.w3.org/2000/svg" stroke-linecap="round" stroke-linejoin="round" stroke-width="3" stroke="#006769" fill="none"><path d="m 57,528 0,-45" /><path d="m 57,513 12,-9" /><path d="m 57,513 -12,-9" /><path d="M 35,483 55,495 77,483" /><path d="m 50,477 7,4 v 0 l 8,-5" /><path  stroke="#00336C" fill="#00336C" d="m 42,574 c 7,0 29,0 29,0 0,0 18,-45 15,-45 H 26 Z" /><g transform="translate(70,0)"><path d="m 57,528 0,-45" /><path d="m 57,513 12,-9" /><path d="m 57,513 -12,-9" /><path d="M 35,483 55,495 77,483" /><path d="m 50,477 7,4 v 0 l 8,-5" /><path  stroke="#00336C" fill="#00336C" d="m 42,574 c 7,0 29,0 29,0 0,0 18,-45 15,-45 H 26 Z" /></g><g transform="translate(140,0)"><path d="m 57,528 0,-45" /><path d="m 57,513 12,-9" /><path d="m 57,513 -12,-9" /><path d="M 35,483 55,495 77,483" /><path d="m 50,477 7,4 v 0 l 8,-5" /><path  stroke="#00336C" fill="#00336C" d="m 42,574 c 7,0 29,0 29,0 0,0 18,-45 15,-45 H 26 Z" /></g><g transform="translate(210,0)"><path d="m 57,528 0,-45" /><path d="m 57,513 12,-9" /><path d="m 57,513 -12,-9" /><path d="M 35,483 55,495 77,483" /><path d="m 50,477 7,4 v 0 l 8,-5" /><path  stroke="#00336C" fill="#00336C" d="m 42,574 c 7,0 29,0 29,0 0,0 18,-45 15,-45 H 26 Z" /></g><g transform="translate(280,0)"><path d="m 57,528 0,-45" /><path d="m 57,513 12,-9" /><path d="m 57,513 -12,-9" /><path d="M 35,483 55,495 77,483" /><path d="m 50,477 7,4 v 0 l 8,-5" /><path  stroke="#00336C" fill="#00336C" d="m 42,574 c 7,0 29,0 29,0 0,0 18,-45 15,-45 H 26 Z" /></g><g transform="translate(350,0)"><path d="m 57,528 0,-45" /><path d="m 57,513 12,-9" /><path d="m 57,513 -12,-9" /><path d="M 35,483 55,495 77,483" /><path d="m 50,477 7,4 v 0 l 8,-5" /><path  stroke="#00336C" fill="#00336C" d="m 42,574 c 7,0 29,0 29,0 0,0 18,-45 15,-45 H 26 Z" /></g><g transform="translate(110,-130)"><path d="m 57,528 0,-45" /><path d="m 57,513 12,-9" /><path d="m 57,513 -12,-9" /><path d="M 35,483 55,495 77,483" /><path d="m 50,477 7,4 v 0 l 8,-5" /><path  stroke="#00336C" fill="#00336C" d="m 42,574 c 7,0 29,0 29,0 0,0 18,-45 15,-45 H 26 Z" /></g><g transform="translate(180,-130)"><path d="m 57,528 0,-45" /><path d="m 57,513 12,-9" /><path d="m 57,513 -12,-9" /><path d="M 35,483 55,495 77,483" /><path d="m 50,477 7,4 v 0 l 8,-5" /><path  stroke="#00336C" fill="#00336C" d="m 42,574 c 7,0 29,0 29,0 0,0 18,-45 15,-45 H 26 Z" /></g><g transform="translate(250,-130)"><path d="m 57,528 0,-45" /><path d="m 57,513 12,-9" /><path d="m 57,513 -12,-9" /><path d="M 35,483 55,495 77,483" /><path d="m 50,477 7,4 v 0 l 8,-5" /><path  stroke="#00336C" fill="#00336C" d="m 42,574 c 7,0 29,0 29,0 0,0 18,-45 15,-45 H 26 Z" /></g><g fill="#006769"><path stroke-width="20" d="M 485,515 485,243" /><path d="m 485,228 -71,83 45,-10 -64,70 50,-14 -50,74 91,-9" /><path d="m 485,228 71,83 -45,-10 64,70 -50,-14 50,74 -91,-9" /></g><g fill="#006769" transform="translate(-160,-200)"><path stroke-width="20" d="M 485,515 485,243" /><path d="m 485,228 -71,83 45,-10 -64,70 50,-14 -50,74 91,-9" /><path d="m 485,228 71,83 -45,-10 64,70 -50,-14 50,74 -91,-9" /></g><g fill="#006769" transform="translate(-380,-180)"><path stroke-width="20" d="M 485,515 485,243" /><path d="m 485,228 -71,83 45,-10 -64,70 50,-14 -50,74 91,-9" /><path d="m 485,228 71,83 -45,-10 64,70 -50,-14 50,74 -91,-9" /></g></svg>