<?xml version="1.0" encoding="UTF-8" standalone="no"?>
<!DOCTYPE svg PUBLIC "-//W3C//DTD SVG 20010904//EN"
 "http://www.w3.org/TR/2001/REC-SVG-20010904/DTD/svg10.dtd">
<svg version="1.0" xmlns="http://www.w3.org/2000/svg"
 width="700.000000pt" height="700.000000pt" viewBox="0 0 700.000000 700.000000"
 preserveAspectRatio="xMidYMid meet">
<g transform="translate(0.000000,700.000000) scale(0.100000,-0.100000)"
fill="#000000" stroke="none">
<path d="M3205 6769 c-421 -37 -883 -176 -1260 -380 -893 -484 -1512 -1347
-1679 -2339 -205 -1218 280 -2431 1269 -3177 558 -421 1254 -652 1962 -653
1105 -1 2121 545 2738 1470 727 1091 727 2529 0 3620 -460 690 -1143 1173
-1941 1373 -339 85 -735 116 -1089 86z m1135 -760 c118 -60 327 -282 589 -629
133 -175 251 -338 251 -345 0 -2 -55 -46 -122 -96 -68 -51 -184 -143 -258
-204 -74 -61 -173 -141 -220 -177 -146 -113 -230 -212 -267 -312 -8 -22 -19
-93 -23 -156 -13 -172 -123 -577 -310 -1140 -114 -345 -121 -360 -159 -360
-40 0 -155 37 -181 58 l-23 18 16 110 c9 60 21 215 27 344 5 129 15 323 20
430 10 184 10 198 -9 253 -59 171 -165 290 -385 435 -148 98 -174 107 -219 72
-28 -22 -109 -173 -156 -292 -35 -88 -83 -263 -105 -387 l-16 -83 37 -112 c36
-106 107 -256 296 -617 49 -93 85 -173 82 -181 -10 -24 -93 -79 -142 -94 -72
-22 -125 -18 -142 9 -8 12 -98 137 -200 277 -102 140 -219 307 -259 370 -86
134 -200 359 -241 478 l-28 82 17 78 c10 42 33 163 50 267 59 353 110 505 216
643 44 57 106 103 654 484 719 501 710 494 875 648 185 172 221 185 335 129z"/>
</g>
</svg>
