<?xml version="1.0" encoding="UTF-8" standalone="no"?>
<svg width="3600" height="400" viewBox="0 0 3600 400" version="1.1" xmlns="http://www.w3.org/2000/svg" xmlns:svg="http://www.w3.org/2000/svg" stroke-linecap="round" stroke-linejoin="round" stroke-width="10" stroke="white" fill="none">

<circle stroke-width="15" cx="200" cy="200" r="180" />
<path d="m 213,71 -71,49.5 c -18.3,17.6 -15.6,42.6 -22,64.5 8.5,30 29.7,52.4 45.2,75.5 10.5,1 18.7,-2.5 24.3,-11.1 -8.5,-18.7 -20,-34.8 -24.8,-52.5 2.3,-14.2 5.7,-26.2 13.5,-39.3 17.3,11 23.8,15.5 27.8,30 -2.2,11.1 -0.3,40.8 -4.6,60 0,6.6 16.8,11.4 22,9 2.8,-1.3 31,-90.4 26.6,-91 0,-13 13.5,-21 21.6,-27.3 8.6,-7.4 13.5,-11.5 31.7,-24.8 C 238,21.5 242,50 213,71 Z" />
<path d="m 75,300 100,0 25,50 25,-50 100,0" />
<path stroke-dasharray="10" stroke-linejoin="miter" stroke-miterlimit="2" stroke-linecap="butt" d="m 199,270 0,53" />

<g  transform="translate(400,0)">
<circle stroke-width="15" cx="200" cy="200" r="180" />
<path d="m 70,300 100,0 h 30 L 230,300 330,300" />
<g stroke-width="5">
<path d="M 98,297 98,229" />
<path d="M 96,255 79,241" />
<path d="m 99,255 17,-13" />
<path d="M 99,272 124,258" />
<path d="M 97,237 87,228" />
<path d="M 97,237 111,228" />
<path d="M 97,286 85,276" />
<path d="m 97,286 13,-9" />
<path d="M 99,272 74,258" />
<path d="m 168,298 0,-68" />
<path d="M 167,255 149,242" />
<path d="m 169,255 17,-14" />
<path d="m 169,273 25,-15" />
<path d="M 169,238 157,228" />
<path d="M 169,238 181,229" />
<path d="M 167,287 156,277" />
<path d="m 167,287 13,-9" />
<path d="M 169,273 144,258" />
</g>
<path d="m 105,152 c 1,-23 11,-45 28,-61 16.5,-16 39,-25 62,-25 23,0 45.5,9 62,25 16.5,16 26.5,38 27,61 0.5,16 -3,31.5 -10.5,45.5" />
<path d="m 125,151 c 4,-18 15,-33.7 31,-43 15.6,-9 35,-11.5 52.5,-6 17,5 32,18 40,34.4 8,16 9,36 2,53 -1,2 -2,4.4 -3,6.5" />
<path d="m 247,196 2.3,19.3 69,31.7 10,-24.6 -55,-24" />
<path d="m 105,149 c 0,0 5,23.7 7.5,21 2.6,-2.7 12,-18.7 12,-18.7" />
</g>

<g  transform="translate(800,0)">
<circle stroke-width="15" cx="200" cy="200" r="180" />
<path d="m 70,300 100,0 h 30 L 230,300 330,300" />
<path d="m 84,198 v 80 h 90 v -80" />
<path d="m 228,198 v 80 h 90 v -80" />
<path d="m 154,76 0,80 90,0 v -80" />
<path d="m 213,211 v -30 h 120 v 32" />
<path d="m 69,211 v -30 h 120 v 32" />
<path d="m 139,90 0,-30 120,0 v 32" />
<path d="m 128,201 v 35 l 17,-18" />
<path d="m 150,235 h -22 -22" />
<path d="M 128,236 112,217" />
<path d="m 119,245 9,-9 9,9" />
<path d="m 128,236 v 30" stroke-width="5" />
<path d="m 272,200 v 35 l 16,-16" />
<path d="M 295,234 H 273 251" />
<path d="M 272,235 257,218" />
<path d="m 263,245 8,-11 11,11" />
<path d="m 272,235 0,30" stroke-width="5" />
<path d="M 198,81 V 115 L 214,98" />
<path d="m 219,114 -21,0 h -21" />
<path d="M 198,115 183,98" />
<path d="m 191,125 4,-10 10,10" />
<path d="m 198,115 v 30" stroke-width="5" />
</g>

<g  transform="translate(1200,0)">
<circle stroke-width="15" cx="200" cy="200" r="180" />
<path d="m 70,300 100,0 h 30 L 230,300 330,300" />
<path d="m 73,214 c -9,4 -17,11 -21,20.5 -3.7,9 -3.5,20 0.6,29 1.5,3 3.5,6 6,9 3.5,4 8,7 13,9 5,2 10.4,2.4 15.5,1.5 5,-1 10,-3 14,-6.5 4,-4 7,-8 9,-13 2,-5.3 2,-11 0.5,-16.5 -1,-5.5 -3.5,-10.6 -6.5,-15.5 -4,-6.3 -9,-12 -14.5,-16.6" />
<path d="m 73,214 -16,-26 43,0 -10,27" />
<path d="m 168,193.5 c -12,5 -22,15 -26.5,27 -5,12 -5,26 1,37.5 2,4 4.5,8 7.5,11.5 4.5,5 10,9 16.7,11.4 6.4,2 13,3 20,2 7,-1 13,-4 18,-8 5,-4 9,-10 11,-16.7 2,-7 2,-14 1,-21.5 -1.5,-7 -4.5,-14 -8,-20 -5,-8 -11,-15.5 -18.6,-21.6" />
<path d="m 168,193 -20,-33 56,0 -13,34" />
<path d="m 280,170 c -15.5,5.5 -28.5,18 -35,33 -6,15 -6,33 1,48 2.5,5.5 6,10.4 10,15 6,6.5 13.5,12 22,15 8,3 17.5,4 26,3 9,-1 17,-5 24,-10.5 7,-5.5 12,-13 15,-22 3,-9 3,-18 1,-27 -2,-9 -6,-17 -11,-25 -6.5,-10.5 -15,-20 -24.5,-27" />
<path d="m 280,170 -26,-43 73,0.5 -17,44" />
<path d="m 325,167 -65,0" />
<ellipse cx="343" cy="167" rx="15" ry="10" />
<path d="m 202,191 -55,0" />
<ellipse cx="217" cy="191" rx="10" ry="7" />
<path d="M 105,213 57,212" />
<ellipse cx="116" cy="213" rx="10" ry="6" />
</g>

<g  transform="translate(1600,0)">
<circle stroke-width="15" cx="200" cy="200" r="180" />
<circle stroke-width="20" cx="215" cy="125" r="50" />
<path stroke-width="20" d="m 250,165 75,70" />
<rect width="80" height="80" x="55" y="165" />
<path d="M 80,198 97,180 97,225" />
<rect width="80" height="80" x="130" y="260" />
<path d="m 155,284 a 13,12.5 0 0 1 12.5,-6 13.5,12.5 0 0 1 11.5,7.5 13.5,12.5 0 0 1 -2,13" />
<path d="m 177,299 -22,21 h 28" />
</g>


<g stroke-width="3" stroke-linejoin="round" stroke="#00336C" fill="white">
<g  transform="translate(2000,0)">
<circle fill="#00336c" cx="200" cy="200" r="197" />
<path d="m 132.8,151.5 h 135.4 v 35.4 h -40.6 v 107.3 h 40.6 v 35.4 H 132.8 v -35.4 h 40.6 V 186.9 h -40.6 z" />
<circle cx="200" cy="89" r="35" />
</g>

<g  transform="translate(2400,0)">
<circle fill="#00336c" cx="200" cy="200" r="197" />
<path d="m 276.9,257.2 8.7,-57.1 h -54.6 v -37 c 0,-15.6 7.6,-30.9 32.1,-30.9 h 24.9 V 83.5 c 0,0 -22.5,-3.9 -44.1,-3.9 -45,0 -74.4,27.4 -74.4,76.9 v 43.5 h -50 v 57.1 h 50 v 138.1 c 10,1.6 20.3,2.4 30.8,2.4 10.5,0 20.7,-0.8 30.8,-2.4 V 257.2 Z" />
</g>

<g  transform="translate(2800,0)">
<circle fill="#00336c" cx="200" cy="200" r="197" />
<path stroke-width="5" d="M304.1 37.5h55.1l-120.45 137.7 141.7 187.3H269.5l-86.9-113.6L83.2 362.5H28l128.8-147.3L20.9 37.5H134.7l78.6 103.9zm-19.4 292h30.6L118.1 68.8H85.3z"/>
</g>

<g  transform="translate(3200,0)">
<circle fill="#00336c" cx="200" cy="200" r="197" />
<path d="M 266.7,91.4 H 133.4 c -23.1,0 -42,18.8 -42,42 v 133.2 c 0,23.1 18.8,42 42,42 H 266.7 c 23.1,0 42,-18.8 42,-42 V 133.3 c 0,-23.1 -18.8,-42 -42,-42 z m 13.2,24.3 4.8,0 v 36 l -36.3,0.1 -0.1,-36 c 0,0 31.7,-0.1 31.7,-0.1 z m -79.8,48 c 30,0 36,28.3 36.3,36.3 0,20 -16.3,36.3 -36.3,36.3 -20,0 -36.3,-16.3 -36.3,-36.3 0,-8 6.2,-36.3 36.3,-36.3 z m 84.8,100.3 c 0,11.5 -9.3,20.8 -20.8,20.8 H 135.7 c -11.5,0 -20.8,-9.3 -20.8,-20.8 v -88.1 h 30.2 c -2.8,6.8 -4.4,16.3 -4.4,24.2 0,32.7 26.6,59.4 59.4,59.4 32.8,0 59.4,-26.6 59.4,-59.4 0,-7.9 -1.6,-17.3 -4.4,-24.2 h 29.8 v 88.1 z" />
</g>
</g>
</svg>