<?xml version="1.0" encoding="UTF-8" standalone="no"?>
<svg xmlns="http://www.w3.org/2000/svg" xmlns:xlink="http://www.w3.org/1999/xlink" xmlns:svg="http://www.w3.org/2000/svg" version="1.1" baseProfile="full" width="600" height="600" viewBox="0 0 600 600" stroke-linecap="round" stroke-linejoin="round" stroke-width="5" stroke="#006769" fill="none" preserveAspectRatio="xMidYMid meet">
<g stroke="#00336C" stroke-width="10">
<path d="m 52,545 0,-366 H 547 l 0,370" />
<path d="M 52,178 300,70 547,178" />
</g>
<path d="m 109,546 0,-266" />
<path d="m 109,465 40,-36" />
<path d="M 107,463 69,429" />
<path d="m 81,328 28,29 29,-30" />
<path d="m 89,296 20,23 22,-23" />
<path d="m 94.5,266 14,14 v 0 l 15,-14" />
<path d="m 79,365 30,28 29,-29" />
<path d="m 76,395 33,33 33,-33" />
<path d="m 79,470 30,29 30,-29" />
<ellipse fill="#006769" cx="109" cy="265" rx="5" ry="9" />
<g  transform="translate(95,0)">
<path d="m 109,546 0,-266" />
<path d="m 109,465 40,-36" />
<path d="M 107,463 69,429" />
<path d="m 81,328 28,29 29,-30" />
<path d="m 89,296 20,23 22,-23" />
<path d="m 94.5,266 14,14 v 0 l 15,-14" />
<path d="m 79,365 30,28 29,-29" />
<path d="m 76,395 33,33 33,-33" />
<path d="m 79,470 30,29 30,-29" />
<ellipse fill="#006769" cx="109" cy="265" rx="5" ry="9" />
</g>
<g  transform="translate(190,0)">
<path d="m 109,546 0,-266" />
<path d="m 109,465 40,-36" />
<path d="M 107,463 69,429" />
<path d="m 81,328 28,29 29,-30" />
<path d="m 89,296 20,23 22,-23" />
<path d="m 94.5,266 14,14 v 0 l 15,-14" />
<path d="m 79,365 30,28 29,-29" />
<path d="m 76,395 33,33 33,-33" />
<path d="m 79,470 30,29 30,-29" />
<ellipse fill="#006769" cx="109" cy="265" rx="5" ry="9" />
</g>
<g  transform="translate(285,0)">
<path d="m 109,546 0,-266" />
<path d="m 109,465 40,-36" />
<path d="M 107,463 69,429" />
<path d="m 81,328 28,29 29,-30" />
<path d="m 89,296 20,23 22,-23" />
<path d="m 94.5,266 14,14 v 0 l 15,-14" />
<path d="m 79,365 30,28 29,-29" />
<path d="m 76,395 33,33 33,-33" />
<path d="m 79,470 30,29 30,-29" />
<ellipse fill="#006769" cx="109" cy="265" rx="5" ry="9" />
</g>
<g  transform="translate(380,0)">
<path d="m 109,546 0,-266" />
<path d="m 109,465 40,-36" />
<path d="M 107,463 69,429" />
<path d="m 81,328 28,29 29,-30" />
<path d="m 89,296 20,23 22,-23" />
<path d="m 94.5,266 14,14 v 0 l 15,-14" />
<path d="m 79,365 30,28 29,-29" />
<path d="m 76,395 33,33 33,-33" />
<path d="m 79,470 30,29 30,-29" />
<ellipse fill="#006769" cx="109" cy="265" rx="5" ry="9" />
</g>
</svg>
