<?xml version="1.0" encoding="UTF-8" standalone="no"?>
<svg xmlns="http://www.w3.org/2000/svg" xmlns:xlink="http://www.w3.org/1999/xlink" xmlns:svg="http://www.w3.org/2000/svg" version="1.1" baseProfile="full" width="600" height="600" viewBox="0 0 600 600" stroke-linecap="round" stroke-linejoin="round" stroke-width="3" stroke="#00336C" fill="none" preserveAspectRatio="xMidYMid meet">

<!-- ventilátor -->
<ellipse cx="-58" cy="104" rx="47" ry="8" transform="rotate(-50)" fill="#00336C" />
<rect width="50" height="10" x="0" y="95" fill="#00336C" />


<!-- výtr z ventilátoru -->
<g stroke="#FFACCF" stroke-dasharray="10">
<path d="m 77,99 c 5,13 17,22 30,25 5,1 10,1 14,2 5,1 10,2 14,5 5,3 8,8 10,14 2,5 4,11 6,16 2,5 4,9 7,13 3,4 7,7 12,9 5,2 10,2 15,2 5,0 1,0 15,0 8,1 16,4 23,8 7,5 12,11 16,19" />
<path d="m 57,133 c 5,13 17,22 30,25 5,1 10,1 14,2 5,1 10,2 14,5 5,3 8,8 10,14 2,5 4,11 6,16 2,5 4,9 7,13 3,4 7,7 12,9 5,2 10,2 15,2 5,0 1,0 15,0 8,1 16,4 23,8 7,5 12,11 16,19" />
<path d="m 33,163 c 5,13 17,22 30,25 5,1 10,1 14,2 5,1 10,2 14,5 5,3 8,8 10,14 2,5 4,11 6,16 2,5 4,9 7,13 3,4 7,7 12,9 5,2 10,2 15,2 5,0 1,0 15,0 8,1 16,4 23,8 7,5 12,11 16,19" />
</g>


<!--  odvětrávání -->
<rect width="25" height="32" x="570" y="80" />
<rect width="50" height="95" x="520" y="80" fill="#00336C" />

<!-- šipka k odveravani -->
<g stroke="#FFACCF">
<path d="M 500,105 C 468,104 436,104 405,103" stroke-dasharray="10" />
<path d="m 476,94 24,11 -22,8" />
</g>

<g stroke="#FFACCF" transform="translate(0,50)">
<path d="M 500,105 C 468,104 436,104 405,103" stroke-dasharray="10" />
<path d="m 476,94 24,11 -22,8" />
</g>


<!-- světlo -->
<rect width="175" height="20" x="110" y="30" fill="#00336C" />

<!-- paprsky -->
<g stroke="#FFC498" stroke-dasharray="10">
<path d="M 122,65 25,345" />
<path d="M 144,65 125,345" />
<path d="M 181,65 175,345" />
<path d="M 216,65 V 345" />
<path d="M 253,65 250,345" />
<path d="M 275,65 326,345" />
</g>

<g transform="translate(200,0)">
<!-- světlo -->
<rect width="175" height="20" x="110" y="30" fill="#00336C" />

<!-- paprsky -->
<g stroke="#FFC498" stroke-dasharray="10">
<path d="M 122,65 25,345" />
<path d="M 144,65 125,345" />
<path d="M 181,65 175,345" />
<path d="M 216,65 V 345" />
<path d="M 253,65 250,345" />
<path d="M 275,65 326,345" />
</g></g>

<!-- kytka s květináčem -->
<g stroke="#006769">
<path d="M 30,550 V 490" />
<path d="m 16,518 14,9 14,-9" />
<path d="m 25,499 5,4 v 0 l 5,-4" />
<path d="m 19,507 11,6 12,-6" />
<path d="m 15,532 15,5 15,-5" />
</g>
<path d="m 21,585 c 5,0 20,0 20,0 0,0 12,-32 10,-32 H 9 Z" fill="#00336C" />

<g transform="translate(60,0)">
<!-- kytka s květináčem -->
<g stroke="#006769">
<path d="M 30,550 V 490" />
<path d="m 16,518 14,9 14,-9" />
<path d="m 25,499 5,4 v 0 l 5,-4" />
<path d="m 19,507 11,6 12,-6" />
<path d="m 15,532 15,5 15,-5" />
</g>
<path d="m 21,585 c 5,0 20,0 20,0 0,0 12,-32 10,-32 H 9 Z" fill="#00336C" />
</g>

<g transform="translate(120,0)">
<!-- kytka s květináčem -->
<g stroke="#006769">
<path d="M 30,550 V 490" />
<path d="m 16,518 14,9 14,-9" />
<path d="m 25,499 5,4 v 0 l 5,-4" />
<path d="m 19,507 11,6 12,-6" />
<path d="m 15,532 15,5 15,-5" />
</g>
<path d="m 21,585 c 5,0 20,0 20,0 0,0 12,-32 10,-32 H 9 Z" fill="#00336C" />
</g>

<g transform="translate(180,0)">
<!-- kytka s květináčem -->
<g stroke="#006769">
<path d="M 30,550 V 490" />
<path d="m 16,518 14,9 14,-9" />
<path d="m 25,499 5,4 v 0 l 5,-4" />
<path d="m 19,507 11,6 12,-6" />
<path d="m 15,532 15,5 15,-5" />
</g>
<path d="m 21,585 c 5,0 20,0 20,0 0,0 12,-32 10,-32 H 9 Z" fill="#00336C" />
</g>


<g transform="translate(240,0)">
<!-- kytka s květináčem -->
<g stroke="#006769">
<path d="M 30,550 V 490" />
<path d="m 16,518 14,9 14,-9" />
<path d="m 25,499 5,4 v 0 l 5,-4" />
<path d="m 19,507 11,6 12,-6" />
<path d="m 15,532 15,5 15,-5" />
</g>
<path d="m 21,585 c 5,0 20,0 20,0 0,0 12,-32 10,-32 H 9 Z" fill="#00336C" />
</g>


<g transform="translate(300,0)">
<!-- kytka s květináčem -->
<g stroke="#006769">
<path d="M 30,550 V 490" />
<path d="m 16,518 14,9 14,-9" />
<path d="m 25,499 5,4 v 0 l 5,-4" />
<path d="m 19,507 11,6 12,-6" />
<path d="m 15,532 15,5 15,-5" />
</g>
<path d="m 21,585 c 5,0 20,0 20,0 0,0 12,-32 10,-32 H 9 Z" fill="#00336C" />
</g>


<g transform="translate(360,0)">
<!-- kytka s květináčem -->
<g stroke="#006769">
<path d="M 30,550 V 490" />
<path d="m 16,518 14,9 14,-9" />
<path d="m 25,499 5,4 v 0 l 5,-4" />
<path d="m 19,507 11,6 12,-6" />
<path d="m 15,532 15,5 15,-5" />
</g>
<path d="m 21,585 c 5,0 20,0 20,0 0,0 12,-32 10,-32 H 9 Z" fill="#00336C" />
</g>

<g transform="translate(420,0)">
<!-- kytka s květináčem -->
<g stroke="#006769">
<path d="M 30,550 V 490" />
<path d="m 16,518 14,9 14,-9" />
<path d="m 25,499 5,4 v 0 l 5,-4" />
<path d="m 19,507 11,6 12,-6" />
<path d="m 15,532 15,5 15,-5" />
</g>
<path d="m 21,585 c 5,0 20,0 20,0 0,0 12,-32 10,-32 H 9 Z" fill="#00336C" />
</g>

<g transform="translate(480,0)">
<!-- kytka s květináčem -->
<g stroke="#006769">
<path d="M 30,550 V 490" />
<path d="m 16,518 14,9 14,-9" />
<path d="m 25,499 5,4 v 0 l 5,-4" />
<path d="m 19,507 11,6 12,-6" />
<path d="m 15,532 15,5 15,-5" />
</g>
<path d="m 21,585 c 5,0 20,0 20,0 0,0 12,-32 10,-32 H 9 Z" fill="#00336C" />
</g>


<g transform="translate(540,0)">
<!-- kytka s květináčem -->
<g stroke="#006769">
<path d="M 30,550 V 490" />
<path d="m 16,518 14,9 14,-9" />
<path d="m 25,499 5,4 v 0 l 5,-4" />
<path d="m 19,507 11,6 12,-6" />
<path d="m 15,532 15,5 15,-5" />
</g>
<path d="m 21,585 c 5,0 20,0 20,0 0,0 12,-32 10,-32 H 9 Z" fill="#00336C" />
</g>

<g transform="translate(600,0)">
<!-- kytka s květináčem -->
<g stroke="#006769">
<path d="M 30,550 V 490" />
<path d="m 16,518 14,9 14,-9" />
<path d="m 25,499 5,4 v 0 l 5,-4" />
<path d="m 19,507 11,6 12,-6" />
<path d="m 15,532 15,5 15,-5" />
</g>
<path d="m 21,585 c 5,0 20,0 20,0 0,0 12,-32 10,-32 H 9 Z" fill="#00336C" />
</g>





<!-- kytka s květináčem -->
<g transform="translate(0,-125)">
<g stroke="#006769">
<path d="M 30,550 V 490" />
<path d="m 16,518 14,9 14,-9" />
<path d="m 25,499 5,4 v 0 l 5,-4" />
<path d="m 19,507 11,6 12,-6" />
<path d="m 15,532 15,5 15,-5" />
</g>
<path d="m 21,585 c 5,0 20,0 20,0 0,0 12,-32 10,-32 H 9 Z" fill="#00336C" />
</g>


<g transform="translate(60,-125)">
<!-- kytka s květináčem -->
<g stroke="#006769">
<path d="M 30,550 V 490" />
<path d="m 16,518 14,9 14,-9" />
<path d="m 25,499 5,4 v 0 l 5,-4" />
<path d="m 19,507 11,6 12,-6" />
<path d="m 15,532 15,5 15,-5" />
</g>
<path d="m 21,585 c 5,0 20,0 20,0 0,0 12,-32 10,-32 H 9 Z" fill="#00336C" />
</g>

<g transform="translate(120,-125)">
<!-- kytka s květináčem -->
<g stroke="#006769">
<path d="M 30,550 V 490" />
<path d="m 16,518 14,9 14,-9" />
<path d="m 25,499 5,4 v 0 l 5,-4" />
<path d="m 19,507 11,6 12,-6" />
<path d="m 15,532 15,5 15,-5" />
</g>
<path d="m 21,585 c 5,0 20,0 20,0 0,0 12,-32 10,-32 H 9 Z" fill="#00336C" />
</g>

<g transform="translate(180,-125)">
<!-- kytka s květináčem -->
<g stroke="#006769">
<path d="M 30,550 V 490" />
<path d="m 16,518 14,9 14,-9" />
<path d="m 25,499 5,4 v 0 l 5,-4" />
<path d="m 19,507 11,6 12,-6" />
<path d="m 15,532 15,5 15,-5" />
</g>
<path d="m 21,585 c 5,0 20,0 20,0 0,0 12,-32 10,-32 H 9 Z" fill="#00336C" />
</g>


<g transform="translate(240,-125)">
<!-- kytka s květináčem -->
<g stroke="#006769">
<path d="M 30,550 V 490" />
<path d="m 16,518 14,9 14,-9" />
<path d="m 25,499 5,4 v 0 l 5,-4" />
<path d="m 19,507 11,6 12,-6" />
<path d="m 15,532 15,5 15,-5" />
</g>
<path d="m 21,585 c 5,0 20,0 20,0 0,0 12,-32 10,-32 H 9 Z" fill="#00336C" />
</g>


<g transform="translate(300,-125)">
<!-- kytka s květináčem -->
<g stroke="#006769">
<path d="M 30,550 V 490" />
<path d="m 16,518 14,9 14,-9" />
<path d="m 25,499 5,4 v 0 l 5,-4" />
<path d="m 19,507 11,6 12,-6" />
<path d="m 15,532 15,5 15,-5" />
</g>
<path d="m 21,585 c 5,0 20,0 20,0 0,0 12,-32 10,-32 H 9 Z" fill="#00336C" />
</g>


<g transform="translate(360,-125)">
<!-- kytka s květináčem -->
<g stroke="#006769">
<path d="M 30,550 V 490" />
<path d="m 16,518 14,9 14,-9" />
<path d="m 25,499 5,4 v 0 l 5,-4" />
<path d="m 19,507 11,6 12,-6" />
<path d="m 15,532 15,5 15,-5" />
</g>
<path d="m 21,585 c 5,0 20,0 20,0 0,0 12,-32 10,-32 H 9 Z" fill="#00336C" />
</g>

<g transform="translate(420,-125)">
<!-- kytka s květináčem -->
<g stroke="#006769">
<path d="M 30,550 V 490" />
<path d="m 16,518 14,9 14,-9" />
<path d="m 25,499 5,4 v 0 l 5,-4" />
<path d="m 19,507 11,6 12,-6" />
<path d="m 15,532 15,5 15,-5" />
</g>
<path d="m 21,585 c 5,0 20,0 20,0 0,0 12,-32 10,-32 H 9 Z" fill="#00336C" />
</g>

<g transform="translate(480,-125)">
<!-- kytka s květináčem -->
<g stroke="#006769">
<path d="M 30,550 V 490" />
<path d="m 16,518 14,9 14,-9" />
<path d="m 25,499 5,4 v 0 l 5,-4" />
<path d="m 19,507 11,6 12,-6" />
<path d="m 15,532 15,5 15,-5" />
</g>
<path d="m 21,585 c 5,0 20,0 20,0 0,0 12,-32 10,-32 H 9 Z" fill="#00336C" />
</g>


<g transform="translate(540,-125)">
<!-- kytka s květináčem -->
<g stroke="#006769">
<path d="M 30,550 V 490" />
<path d="m 16,518 14,9 14,-9" />
<path d="m 25,499 5,4 v 0 l 5,-4" />
<path d="m 19,507 11,6 12,-6" />
<path d="m 15,532 15,5 15,-5" />
</g>
<path d="m 21,585 c 5,0 20,0 20,0 0,0 12,-32 10,-32 H 9 Z" fill="#00336C" />
</g>

<g transform="translate(600,-125)">
<!-- kytka s květináčem -->
<g stroke="#006769">
<path d="M 30,550 V 490" />
<path d="m 16,518 14,9 14,-9" />
<path d="m 25,499 5,4 v 0 l 5,-4" />
<path d="m 19,507 11,6 12,-6" />
<path d="m 15,532 15,5 15,-5" />
</g>
<path d="m 21,585 c 5,0 20,0 20,0 0,0 12,-32 10,-32 H 9 Z" fill="#00336C" />
</g>
</svg>
