<?xml version="1.0" encoding="UTF-8" standalone="no"?>
<svg width="600" height="600" viewBox="0 0 600 600" version="1.1" xmlns="http://www.w3.org/2000/svg" xmlns:svg="http://www.w3.org/2000/svg" stroke-linecap="round" stroke-linejoin="round" stroke-width="5" stroke="#00336C" fill="none">
<path d="m 19,283 0,-207 566,0 0,207 Z" />
<path d="M 19,75 300,19 585,75" />
<rect width="75" height="140" x="330" y="125" />
<rect width="55" height="60" x="340" y="135" />
<circle cx="392" cy="210" r="5" />
<ellipse cx="375" cy="209" rx="11" ry="2" />
<rect width="90" height="70" x="205" y="125" />
<line x1="205" x2="295" y1="160" y2="160" />
<line x1="250" x2="250" y1="125" y2="195" />
<g transform="translate(250 0)">
<rect width="90" height="70" x="205" y="125" />
<line x1="205" x2="295" y1="160" y2="160" />
<line x1="250" x2="250" y1="125" y2="195" />
</g>
<g transform="translate(-130 0)">
<rect width="90" height="70" x="205" y="125" />
<line x1="205" x2="295" y1="160" y2="160" />
<line x1="250" x2="250" y1="125" y2="195" />
</g>
<path d="m 5,559 259,1 C 236,284 55,231 5,559 Z" />
<g stroke="#006769" fill="#006769">
<path d="M 55,552 55,472" />
<path d="M 55,535 76,524" />
<path d="M 55,509 72,498" />
<path d="m 55,481 13,-8" />
<path d="M 55,535 34,524" />
<path d="M 55,509 38,500" />
<path d="M 55,481 41,474" />
<ellipse cx="55" cy="466" rx="2.5" ry="8" />
<g transform="translate(55 0)">
<path d="M 55,552 55,472" />
<path d="M 55,535 76,524" />
<path d="M 55,509 72,498" />
<path d="m 55,481 13,-8" />
<path d="M 55,535 34,524" />
<path d="M 55,509 38,500" />
<path d="M 55,481 41,474" />
<ellipse cx="55" cy="466" rx="2.5" ry="8" />
</g>
<g transform="translate(110 0)">
<path d="M 55,552 55,472" />
<path d="M 55,535 76,524" />
<path d="M 55,509 72,498" />
<path d="m 55,481 13,-8" />
<path d="M 55,535 34,524" />
<path d="M 55,509 38,500" />
<path d="M 55,481 41,474" />
<ellipse cx="55" cy="466" rx="2.5" ry="8" />
</g>
<g transform="translate(165 0)">
<path d="M 55,552 55,472" />
<path d="M 55,535 76,524" />
<path d="M 55,509 72,498" />
<path d="m 55,481 13,-8" />
<path d="M 55,535 34,524" />
<path d="M 55,509 38,500" />
<path d="M 55,481 41,474" />
<ellipse cx="55" cy="466" rx="2.5" ry="8" />
</g>
</g>
<g transform="translate(325 0)">
<path d="m 5,559 259,1 C 236,284 55,231 5,559 Z" />
<g stroke="#006769" fill="#006769">
<path d="M 55,552 55,472" />
<path d="M 55,535 76,524" />
<path d="M 55,509 72,498" />
<path d="m 55,481 13,-8" />
<path d="M 55,535 34,524" />
<path d="M 55,509 38,500" />
<path d="M 55,481 41,474" />
<ellipse cx="55" cy="466" rx="2.5" ry="8" />

<g transform="translate(55 0)">
<path d="M 55,552 55,472" />
<path d="M 55,535 76,524" />
<path d="M 55,509 72,498" />
<path d="m 55,481 13,-8" />
<path d="M 55,535 34,524" />
<path d="M 55,509 38,500" />
<path d="M 55,481 41,474" />
<ellipse cx="55" cy="466" rx="2.5" ry="8" />
</g>
<g transform="translate(110 0)">
<path d="M 55,552 55,472" />
<path d="M 55,535 76,524" />
<path d="M 55,509 72,498" />
<path d="m 55,481 13,-8" />
<path d="M 55,535 34,524" />
<path d="M 55,509 38,500" />
<path d="M 55,481 41,474" />
<ellipse cx="55" cy="466" rx="2.5" ry="8" />
</g>
<g transform="translate(165 0)">
<path d="M 55,552 55,472" />
<path d="M 55,535 76,524" />
<path d="M 55,509 72,498" />
<path d="m 55,481 13,-8" />
<path d="M 55,535 34,524" />
<path d="M 55,509 38,500" />
<path d="M 55,481 41,474" />
<ellipse cx="55" cy="466" rx="2.5" ry="8" />
</g>
</g>
</g>
</svg>