<?xml version="1.0" encoding="UTF-8" standalone="no"?>
<svg width="600" height="600" viewBox="0 0 600 600" version="1.1" xmlns="http://www.w3.org/2000/svg" xmlns:svg="http://www.w3.org/2000/svg" stroke-linecap="round" stroke-linejoin="round" stroke-width="5" stroke="#00336C" fill="none">
<g  stroke="none" fill="rgb(0,103,105)">
<rect width="52" height="235" x="0" y="365" />
<rect width="545" height="45" x="50" y="558" />
<rect width="45" height="235" x="560" y="365"/>
</g>
<path d="M 0,365 H 600" stroke-width="10" />
<path d="m 50,38 0,520 510,0 0,-520 z" />
<path d="M 50,206 H 560" />
<path d="m 92,364 0,40 40,0 0,40 40,0 0,40 h 40 l 0,40 h 40 l 0,32" />
<path d="m 367,363 0,195" />
<path d="m 198,363 v -94 l 44,0 0,93" />
<path d="m 87,260 0,55 55,0 0,-55 z" />
<path d="m 114,260 0,55" />
<path d="M 140,288 H 88" />
<g  transform="translate(190,0)">
<path d="m 87,260 0,55 55,0 0,-55 z" />
<path d="m 114,260 0,55" />
<path d="M 140,288 H 88" />
</g>
<g  transform="translate(280,0)">
<path d="m 87,260 0,55 55,0 0,-55 z" />
<path d="m 114,260 0,55" />
<path d="M 140,288 H 88" />
</g>
<g  transform="translate(370,0)">
<path d="m 87,260 0,55 55,0 0,-55 z" />
<path d="m 114,260 0,55" />
<path d="M 140,288 H 88" />
</g>
<g  transform="translate(0,-150)">
<path d="m 87,260 0,55 55,0 0,-55 z" />
<path d="m 114,260 0,55" />
<path d="M 140,288 H 88" />
</g>
<g  transform="translate(95,-150)">
<path d="m 87,260 0,55 55,0 0,-55 z" />
<path d="m 114,260 0,55" />
<path d="M 140,288 H 88" />
</g>
<g  transform="translate(190,-150)">
<path d="m 87,260 0,55 55,0 0,-55 z" />
<path d="m 114,260 0,55" />
<path d="M 140,288 H 88" />
</g>
<g  transform="translate(280,-150)">
<path d="m 87,260 0,55 55,0 0,-55 z" />
<path d="m 114,260 0,55" />
<path d="M 140,288 H 88" />
</g>
<g  transform="translate(370,-150)">
<path d="m 87,260 0,55 55,0 0,-55 z" />
<path d="m 114,260 0,55" />
<path d="M 140,288 H 88" />
</g>
<path d="m 395,540 v -92 l 67,-52 67,52 v 92" />
<g stroke-width="2" stroke="rgb(0,103,105)" >
<circle cx="413.2" cy="490" r="1" />
<path d="m 413,538 0,-45" />
<path d="m 423,521 -10,8 -10,-8" />
<path d="m 420,506 -7,5 -7,-5" />
<path d="m 418,500 -5,4 -5,-4" />
<path d="m 405,514 8,6 8,-6" />
<path d="m 417,494 -4,3 -4,-3" />
</g>
<g stroke-width="2" stroke="rgb(0,103,105)" transform="translate(33,0)">
<circle cx="413.2" cy="490" r="1" />
<path d="m 413,538 0,-45" />
<path d="m 423,521 -10,8 -10,-8" />
<path d="m 420,506 -7,5 -7,-5" />
<path d="m 418,500 -5,4 -5,-4" />
<path d="m 405,514 8,6 8,-6" />
<path d="m 417,494 -4,3 -4,-3" />
</g>
<g stroke-width="2" stroke="rgb(0,103,105)" transform="translate(66,0)">
<circle cx="413.2" cy="490" r="1" />
<path d="m 413,538 0,-45" />
<path d="m 423,521 -10,8 -10,-8" />
<path d="m 420,506 -7,5 -7,-5" />
<path d="m 418,500 -5,4 -5,-4" />
<path d="m 405,514 8,6 8,-6" />
<path d="m 417,494 -4,3 -4,-3" />
</g>
<g stroke-width="2" stroke="rgb(0,103,105)" transform="translate(99,0)">
<circle cx="413.2" cy="490" r="1" />
<path d="m 413,538 0,-45" />
<path d="m 423,521 -10,8 -10,-8" />
<path d="m 420,506 -7,5 -7,-5" />
<path d="m 418,500 -5,4 -5,-4" />
<path d="m 405,514 8,6 8,-6" />
<path d="m 417,494 -4,3 -4,-3" />
</g>
</svg>
