<?xml version="1.0" encoding="UTF-8" standalone="no"?>
<svg xmlns="http://www.w3.org/2000/svg" xmlns:xlink="http://www.w3.org/1999/xlink" xmlns:svg="http://www.w3.org/2000/svg" version="1.1" baseProfile="full"  width="1400" height="600" viewBox="0 0 1400 600" fill="none" stroke="#006769" stroke-width="6" stroke-linecap="round" stroke-linejoin="round" preserveAspectRatio="xMidYMid meet">
<path d="m 10,500 37,100 H 150 l 37,-100 z" fill="#00336c" stroke="#00336c" stroke-width="1" />
<path d="M 100,500 V 450" />
<path d="m 117,476 -17,9 -17,-9" />
<path d="m 117,454 -17,9 -17,-9" />

<g  transform="translate(200,0)">
<path d="m 10,500 37,100 H 150 l 37,-100 z" fill="#00336c" stroke="#00336c" stroke-width="1" />
<path d="M 100,500 V 400" />
<path d="m 121,470 -22,17 -22,-17" />
<path d="m 121,450 -22,17 -22,-17" />
<path d="m 121,430 -22,17 -22,-17" />
<path d="m 121,410 -22,17 -22,-17" />
</g>

<g  transform="translate(400,0)">
<path d="m 10,500 37,100 H 150 l 37,-100 z" fill="#00336c" stroke="#00336c" stroke-width="1" />
<path d="M 100,500 V 300" />
<path d="m 133,450 -32,24 -32,-24" />
<path d="m 115,463 4,-17" />
<path d="m 83,461 -2,-20" />
<path d="m 133,361 -32,24 -32,-24" />
<path d="m 115,374 4,-17" />
<path d="m 83,372 -2,-20" />
<path d="m 133,406 -32,24 -32,-24" />
<path d="m 115,419 4,-17" />
<path d="m 83,417 -2,-20" />
<path d="m 133,314 -32,24 -32,-24" />
<path d="m 115,327 4,-17" />
<path d="m 83,325 -2,-20" />
</g>

<g  transform="translate(600,0)">
<path d="m 10,500 37,100 H 150 l 37,-100 z" fill="#00336c" stroke="#00336c" stroke-width="1" />
<path d="M 102,500 V 200" />
<path d="M 121,206 102,220 82,206" />
<path d="M 155,236 101,272 48,236" />
<path d="m 130,252 5,-27" />
<path d="M 75,252 69,228" />
<path d="m 115,262 23,4" />
<path d="m 83,259 -21,6" />
<path d="M 155,306 101,342 48,306" />
<path d="m 130,322 5,-27" />
<path d="m 75,322 -6,-24" />
<path d="m 115,332 23,4" />
<path d="m 83,329 -21,6" />
<path d="M 155,367 101,404 48,367" />
<path d="m 130,384 5,-27" />
<path d="m 75,384 -6,-24" />
<path d="m 115,394 23,4" />
<path d="m 83,391 -21,6" />
<path d="M 155,431 101,467 48,431" />
<path d="m 130,447 5,-27" />
<path d="m 75,447 -6,-24" />
<path d="m 115,457 23,4" />
<path d="m 83,454 -21,6" />
</g>

<g  transform="translate(800,0)">
<path d="m 10,500 37,100 H 150 l 37,-100 z" fill="#00336c" stroke="#00336c" stroke-width="1" />
<path d="M 102,500 V 125" />
<path d="M 117,127 102,142 88,127" />
<path d="m 156,131 -54,36 -53,-36" />
<path d="m 130,147 5,-27" />
<path d="m 75,147 -6,-24" />
<path d="m 115,157 23,4" />
<path d="m 83,154 -21,6" />
<path d="m 156,184 -54,36 -53,-36" />
<path d="m 132,200 5,-27" />
<path d="m 77,200 -6,-24" />
<path d="m 117,210 23,4" />
<path d="m 85,207 -21,6" />
<path d="M 175,228 103,280 32,228" />
<path d="m 131,261 5,-27" />
<path d="m 76,261 -6,-24" />
<path d="m 116,271 23,4" />
<path d="m 84,268 -21,6" />
<path d="M 175,287 102,340 29,288" />
<path d="m 128,321 5,-27" />
<path d="m 73,321 -6,-24" />
<path d="m 113,331 23,4" />
<path d="m 81,328 -21,6" />
<path d="m 150,304 29,6" />
<path d="m 47,302 -25,8" />
<path d="M 175,351 103,403 32,351" />
<path d="m 131,384 5,-27" />
<path d="m 76,384 -6,-24" />
<path d="m 116,394 23,4" />
<path d="m 84,391 -21,6" />
<path d="m 153,366 29,6" />
<path d="m 50,365 -25,8" />
<path d="M 188,409 102,470 17,409" />
<path d="m 131,450 5,-27" />
<path d="m 76,450 -6,-24" />
<path d="m 116,460 23,4" />
<path d="m 84,457 -21,6" />
<path d="m 156,433 29,6" />
<path d="m 50,433 -25,8" />
<path d="M 31,419 26,394" />
<path d="m 170,421 2,-26" />
</g>

<g  transform="translate(1000,0)">
<path d="m 10,500 37,100 H 150 l 37,-100 z" fill="#00336c" stroke="#00336c" stroke-width="1" />
<g fill="#009E6B" stroke="#009E6B">
<ellipse cx="102" cy="43" rx="2" ry="6" />
<ellipse cx="150" cy="76" rx="2" ry="6" />
<ellipse cx="55" cy="76" rx="2" ry="6" />
<ellipse cx="150" cy="130" rx="2" ry="6" />
<ellipse cx="58" cy="131" rx="2" ry="6" />
<ellipse cx="162" cy="170" rx="2" ry="6" />
<ellipse cx="162" cy="225" rx="2" ry="6" />
<ellipse cx="50" cy="174" rx="2" ry="6" />
<ellipse cx="43" cy="226" rx="2" ry="6" />
<ellipse cx="152" cy="292" rx="2" ry="6" />
<ellipse cx="50" cy="292" rx="2" ry="6" />
<ellipse cx="153" cy="355" rx="2" ry="6" />
<ellipse cx="52" cy="354" rx="2" ry="6" />
<ellipse cx="185" cy="400" rx="2" ry="6" />
<ellipse cx="45" cy="417" rx="2" ry="6" />
</g>
<path d="M 102,500 V 53" />
<path d="M 117,53 102,68 88,53" />
<path d="M 156,84 102,120 49,84" />
<path d="m 130,100 5,-27" />
<path d="M 75,100 69,76" />
<path d="m 115,110 23,4" />
<path d="m 83,107 -21,6" />
<path d="M 156,137 102,173 49,137" />
<path d="m 132,153 5,-27" />
<path d="M 77,153 71,129" />
<path d="m 117,163 23,4" />
<path d="m 85,160 -21,6" />
<path d="M 175,173 103,225 32,173" />
<path d="m 131,206 5,-27" />
<path d="M 76,206 70,182" />
<path d="m 116,216 23,4" />
<path d="m 84,213 -21,6" />
<path d="M 175,287 102,340 29,288" />
<path d="m 128,321 5,-27" />
<path d="m 73,321 -6,-24" />
<path d="m 113,331 23,4" />
<path d="m 81,328 -21,6" />
<path d="m 150,304 29,6" />
<path d="m 47,302 -25,8" />
<path d="M 175,351 103,403 32,351" />
<path d="m 131,384 5,-27" />
<path d="m 76,384 -6,-24" />
<path d="m 116,394 23,4" />
<path d="m 84,391 -21,6" />
<path d="m 153,366 29,6" />
<path d="m 50,365 -25,8" />
<path d="M 188,409 102,470 17,409" />
<path d="m 131,450 5,-27" />
<path d="m 76,450 -6,-24" />
<path d="m 116,460 23,4" />
<path d="m 84,457 -21,6" />
<path d="m 156,433 29,6" />
<path d="m 50,433 -25,8" />
<path d="M 31,419 26,394" />
<path d="m 170,421 2,-26" />
<path d="m 175,227 -73,53 -73,-52" />
<path d="m 128,261 5,-27" />
<path d="m 73,261 -6,-24" />
<path d="m 113,271 23,4" />
<path d="m 81,268 -21,6" />
<path d="m 150,244 29,6" />
<path d="m 47,242 -25,8" />
</g>

<g  transform="translate(1200,0)">
<path d="m 10,500 37,100 H 150 l 37,-100 z" fill="#00336c" stroke="#00336c" stroke-width="1" />
<g fill="#009E6B" stroke="#009E6B">
<ellipse cx="102" cy="15" rx="5" ry="11" />
<ellipse cx="150" cy="76" rx="5" ry="11" />
<ellipse cx="55" cy="76" rx="5" ry="11" />
<ellipse cx="150" cy="130" rx="5" ry="11" />
<ellipse cx="58" cy="131" rx="5" ry="11" />
<ellipse cx="162" cy="170" rx="5" ry="11" />
<ellipse cx="162" cy="225" rx="5" ry="11" />
<ellipse cx="50" cy="174" rx="5" ry="11" />
<ellipse cx="43" cy="226" rx="5" ry="11" />
<ellipse cx="152" cy="292" rx="5" ry="11" />
<ellipse cx="50" cy="292" rx="5" ry="11" />
<ellipse cx="153" cy="355" rx="5" ry="11" />
<ellipse cx="52" cy="354" rx="5" ry="11" />
<ellipse cx="185" cy="400" rx="5" ry="11" />
<ellipse cx="45" cy="417" rx="5" ry="11" />
<ellipse cx="81" cy="39" rx="5" ry="11" />
<ellipse cx="125" cy="39" rx="5" ry="11" />
</g>
<path d="M 101.99972,497.00632 V 27.993685" />
<path d="M 137.4167,45.564053 103.16103,68.945636 71.189077,45.564053" />
<path d="M 156,84 102,120 49,84" />
<path d="m 130,100 5,-27" />
<path d="M 75,100 69,76" />
<path d="m 115,110 23,4" />
<path d="m 83,107 -21,6" />
<path d="M 156,137 102,173 49,137" />
<path d="m 132,153 5,-27" />
<path d="M 77,153 71,129" />
<path d="m 117,163 23,4" />
<path d="m 85,160 -21,6" />
<path d="M 175,173 103,225 32,173" />
<path d="m 131,206 5,-27" />
<path d="M 76,206 70,182" />
<path d="m 116,216 23,4" />
<path d="m 84,213 -21,6" />
<path d="M 175,287 102,340 29,288" />
<path d="m 128,321 5,-27" />
<path d="m 73,321 -6,-24" />
<path d="m 113,331 23,4" />
<path d="m 81,328 -21,6" />
<path d="m 150,304 29,6" />
<path d="m 47,302 -25,8" />
<path d="M 175,351 103,403 32,351" />
<path d="m 131,384 5,-27" />
<path d="m 76,384 -6,-24" />
<path d="m 116,394 23,4" />
<path d="m 84,391 -21,6" />
<path d="m 153,366 29,6" />
<path d="m 50,365 -25,8" />
<path d="M 188,409 102,470 17,409" />
<path d="m 131,450 5,-27" />
<path d="m 76,450 -6,-24" />
<path d="m 116,460 23,4" />
<path d="m 84,457 -21,6" />
<path d="m 156,433 29,6" />
<path d="m 50,433 -25,8" />
<path d="M 31,419 26,394" />
<path d="m 170,421 2,-26" />
<path d="m 175,227 -73,53 -73,-52" />
<path d="m 128,261 5,-27" />
<path d="m 73,261 -6,-24" />
<path d="m 113,271 23,4" />
<path d="m 81,268 -21,6" />
<path d="m 150,244 29,6" />
<path d="m 47,242 -25,8" />
</g>
</svg>