<?xml version="1.0" encoding="UTF-8" standalone="no"?>
<svg xmlns="http://www.w3.org/2000/svg" xmlns:xlink="http://www.w3.org/1999/xlink" xmlns:svg="http://www.w3.org/2000/svg" version="1.1" baseProfile="full" width="400" height="200" viewBox="0 0 400 200" stroke-linecap="round" stroke-linejoin="round" stroke-width="5" stroke="#00336C" fill="none" preserveAspectRatio="xMidYMid meet">
<circle cx="102" cy="61" r="3" />
<path d="M 102,70 V 157" />
<path d="M 102,52 102,37" />
<circle cx="102" cy="28" r="3" />
<path d="m 90,61 -50,0" />
<circle cx="29" cy="61" r="3" />
<path d="m 34,68 15,24" />
<path fill="#00336C" d="m 50,98 a 21,21 0 0 1 -10,18 21,21 0 0 1 -21,0 A 21,21 0 0 1 7.5,98 Z" />
<path d="M 24,68 9,92" />
<circle cx="174" cy="61" r="3" />
<path d="M 180,68 193,92" />
<path fill="#00336C" d="m 194,98 a 21,21 0 0 1 -10,18 21,21 0 0 1 -21,0 21,21 0 0 1 -10,-18 z" />
<path d="M 168,68 154,92" />
<path d="m 163,61 -50,0" />
<path fill="#00336C" d="m 142,-176 a 40,14 0 0 1 -20,12 40,14 0 0 1 -40,0 40,14 0 0 1 -20,-12 z" transform="scale(1,-1)" />
<g transform="translate(200,0)" fill="#00336C" stroke-width="0.1">
<circle cx="44" cy="129" r="20" />
<path d="m 10,190 c -2,-55 65.8,-60 69,0" />
<circle cx="155" cy="129" r="20" />
<path d="m 122,190 c -2,-55 65.8,-60 69,0" />
<circle cx="100" cy="31" r="20" />
<path d="m 67,92 c -2,-55 65.8,-60 69,0" />
</g>
</svg>